<svg width="37" height="38" viewBox="0 0 37 38" fill="none" xmlns="http://www.w3.org/2000/svg">
<g id="Group 1">
<circle id="Ellipse 1" cx="18.2022" cy="18.8961" r="18.2022" fill="#6BBAE9"/>
<path id="Vector" d="M12.8211 17.0883C14.3411 20.39 16.79 23.0967 19.7772 24.7767L22.0994 22.21C22.395 21.8833 22.8067 21.79 23.1761 21.9183C24.3583 22.35 25.625 22.5833 26.9444 22.5833C27.2244 22.5833 27.4929 22.7062 27.6908 22.925C27.8888 23.1438 28 23.4406 28 23.75V27.8333C28 28.1428 27.8888 28.4395 27.6908 28.6583C27.4929 28.8771 27.2244 29 26.9444 29C22.1853 29 17.621 26.9104 14.2558 23.191C10.8906 19.4715 9 14.4268 9 9.16667C9 8.85725 9.11121 8.5605 9.30917 8.34171C9.50712 8.12292 9.7756 8 10.0556 8H13.75C14.03 8 14.2984 8.12292 14.4964 8.34171C14.6943 8.5605 14.8056 8.85725 14.8056 9.16667C14.8056 10.625 15.0167 12.025 15.4072 13.3317C15.5233 13.74 15.4389 14.195 15.1433 14.5217L12.8211 17.0883Z" fill="white"/>
</g>
</svg>
