<svg width="38" height="38" viewBox="0 0 38 38" fill="none" xmlns="http://www.w3.org/2000/svg">
<g id="uim:calender">
<path id="Vector" opacity="0.5" d="M34.8334 15.8332H3.16669V30.0832C3.16669 31.3429 3.66713 32.5511 4.55793 33.4419C5.44873 34.3327 6.65691 34.8332 7.91669 34.8332H30.0834C31.3431 34.8332 32.5513 34.3327 33.4421 33.4419C34.3329 32.5511 34.8334 31.3429 34.8334 30.0832V15.8332ZM11.0834 12.6665C10.6634 12.6665 10.2607 12.4997 9.96377 12.2028C9.66684 11.9058 9.50002 11.5031 9.50002 11.0832V4.74984C9.50002 4.32991 9.66684 3.92718 9.96377 3.63025C10.2607 3.33332 10.6634 3.1665 11.0834 3.1665C11.5033 3.1665 11.906 3.33332 12.2029 3.63025C12.4999 3.92718 12.6667 4.32991 12.6667 4.74984V11.0832C12.6667 11.5031 12.4999 11.9058 12.2029 12.2028C11.906 12.4997 11.5033 12.6665 11.0834 12.6665ZM26.9167 12.6665C26.4968 12.6665 26.094 12.4997 25.7971 12.2028C25.5002 11.9058 25.3334 11.5031 25.3334 11.0832V4.74984C25.3334 4.32991 25.5002 3.92718 25.7971 3.63025C26.094 3.33332 26.4968 3.1665 26.9167 3.1665C27.3366 3.1665 27.7393 3.33332 28.0363 3.63025C28.3332 3.92718 28.5 4.32991 28.5 4.74984V11.0832C28.5 11.5031 28.3332 11.9058 28.0363 12.2028C27.7393 12.4997 27.3366 12.6665 26.9167 12.6665Z" fill="#E72381"/>
<path id="Vector_2" d="M30.0834 6.3335H28.5V11.0835C28.5 11.5034 28.3332 11.9061 28.0363 12.2031C27.7393 12.5 27.3366 12.6668 26.9167 12.6668C26.4968 12.6668 26.094 12.5 25.7971 12.2031C25.5002 11.9061 25.3334 11.5034 25.3334 11.0835V6.3335H12.6667V11.0835C12.6667 11.5034 12.4999 11.9061 12.2029 12.2031C11.906 12.5 11.5033 12.6668 11.0834 12.6668C10.6634 12.6668 10.2607 12.5 9.96377 12.2031C9.66684 11.9061 9.50002 11.5034 9.50002 11.0835V6.3335H7.91669C6.65691 6.3335 5.44873 6.83394 4.55793 7.72474C3.66713 8.61554 3.16669 9.82372 3.16669 11.0835V15.8335H34.8334V11.0835C34.8334 9.82372 34.3329 8.61554 33.4421 7.72474C32.5513 6.83394 31.3431 6.3335 30.0834 6.3335Z" fill="#E72381"/>
</g>
</svg>
