<svg width="28" height="28" viewBox="0 0 28 28" fill="none" xmlns="http://www.w3.org/2000/svg">
<g id="mingcute:check-fill" clip-path="url(#clip0_39_10)">
<g id="Group">
<path id="Vector" fill-rule="evenodd" clip-rule="evenodd" d="M25.137 5.96285C25.4651 6.29102 25.6494 6.73606 25.6494 7.2001C25.6494 7.66414 25.4651 8.10918 25.137 8.43735L12.0202 21.5542C11.8468 21.7276 11.641 21.8651 11.4145 21.9589C11.188 22.0528 10.9452 22.1011 10.7001 22.1011C10.4549 22.1011 10.2121 22.0528 9.98563 21.9589C9.75913 21.8651 9.55333 21.7276 9.37999 21.5542L2.86299 15.0384C2.69585 14.8769 2.56253 14.6838 2.47081 14.4703C2.3791 14.2568 2.33082 14.0272 2.3288 13.7948C2.32678 13.5624 2.37106 13.332 2.45905 13.1169C2.54704 12.9019 2.67699 12.7065 2.8413 12.5422C3.00561 12.3778 3.201 12.2479 3.41607 12.1599C3.63114 12.0719 3.86158 12.0276 4.09394 12.0297C4.32631 12.0317 4.55594 12.08 4.76945 12.1717C4.98295 12.2634 5.17606 12.3967 5.33749 12.5639L10.6995 17.9259L22.6613 5.96285C22.8238 5.80023 23.0168 5.67122 23.2292 5.58321C23.4416 5.49519 23.6692 5.44989 23.8992 5.44989C24.1291 5.44989 24.3567 5.49519 24.5691 5.58321C24.7815 5.67122 24.9745 5.80023 25.137 5.96285Z" fill="#E72381"/>
</g>
</g>
<defs>
<clipPath id="clip0_39_10">
<rect width="28" height="28" fill="white"/>
</clipPath>
</defs>
</svg>
