<svg width="58" height="58" viewBox="0 0 58 58" fill="none" xmlns="http://www.w3.org/2000/svg">
<path id="Vector" fill-rule="evenodd" clip-rule="evenodd" d="M28.2022 5.666C28.5629 5.38144 43.6447 -6.35087 53.6135 5.20744C59.0872 11.5512 58.6232 18.136 56.5932 24.5831L49.4484 45.0516C47.3585 52.1693 45.8687 54.3679 42.2074 57.4582C40.036 59.2943 37.5855 56.1242 35.0064 52.7874C32.7715 49.8964 30.4407 46.8823 28.1116 46.8895C25.7427 46.8968 23.3737 49.9164 21.1081 52.8055C18.4963 56.1369 16.0186 59.2961 13.8345 57.4582C9.42474 53.7462 7.4908 48.6186 5.46805 40.3881C5.07836 38.8039 4.48748 36.9026 3.83317 34.8056C1.0963 26.0168 -2.71358 13.7896 2.87255 7.00725C9.77273 -1.37012 18.3422 -2.71862 28.1098 5.59894L28.2022 5.666ZM23.381 6.52513C20.0025 4.20513 17.1279 3.46563 14.7354 3.65413C11.7973 3.88431 8.74323 5.58081 5.67286 9.31094C3.36011 12.1167 3.1263 16.8546 4.37148 23.0461C4.96417 25.995 5.83055 28.9802 6.70236 31.8168C6.88905 32.4294 7.08117 33.042 7.26967 33.6492C7.93123 35.7698 8.56923 37.8198 8.98792 39.5217C10.8385 47.0581 12.4498 51.1072 15.3697 53.9601C15.9733 53.3982 16.7345 52.4992 17.7441 51.2214L18.2335 50.5979C19.2666 49.2802 20.49 47.716 21.7389 46.4654C23.0656 45.1404 25.2569 43.2718 28.1007 43.2645C30.9572 43.2554 33.1431 45.1531 34.4427 46.4708C35.6734 47.7196 36.8805 49.282 37.8991 50.6015L38.383 51.2268C39.3709 52.4956 40.1194 53.3946 40.7121 53.9546C41.8848 52.8925 42.646 52.0062 43.304 50.9042C44.1559 49.4814 44.9479 47.5094 45.9684 44.0312L46.0245 43.8572L53.1513 23.443C54.0829 20.4705 54.556 17.7572 54.3113 15.207C54.0684 12.7239 53.1277 10.1918 50.8694 7.57456C47.1284 3.23544 42.5319 3.17019 38.1927 4.51325C36.0087 5.19113 34.0494 6.19888 32.6139 7.06163C32.0737 7.38425 31.6206 7.67969 31.269 7.92075L38.229 13.0393C38.6164 13.3238 38.875 13.7507 38.9477 14.2259C39.0204 14.7011 38.9014 15.1857 38.6169 15.5731C38.3323 15.9606 37.9054 16.2191 37.4303 16.2918C36.9551 16.3646 36.4704 16.2456 36.083 15.961L26.2502 8.72913C26.1128 8.64198 25.9814 8.5457 25.8569 8.44094L23.758 6.8985C23.6146 6.79327 23.4876 6.66746 23.381 6.52513Z" fill="#E72381"/>
</svg>
