<svg width="41" height="43" viewBox="0 0 41 43" fill="none" xmlns="http://www.w3.org/2000/svg">
<path id="Vector" fill-rule="evenodd" clip-rule="evenodd" d="M19.9364 4.20065C20.1913 3.98968 30.8528 -4.7084 37.8998 3.86068C41.7692 8.5638 41.4412 13.4456 40.0062 18.2254L34.9554 33.4003C33.4781 38.6772 32.4249 40.3072 29.8367 42.5983C28.3018 43.9595 26.5695 41.6093 24.7462 39.1354C23.1664 36.9922 21.5187 34.7575 19.8723 34.7629C18.1977 34.7682 16.5231 37.0069 14.9215 39.1489C13.0752 41.6187 11.3237 43.9608 9.77974 42.5983C6.66241 39.8463 5.2953 36.0448 3.8654 29.9428C3.58993 28.7684 3.17224 27.3588 2.7097 25.8041C0.77498 19.2883 -1.91825 10.2233 2.03062 5.19503C6.90842 -1.01578 12.9663 -2.01553 19.871 4.15093L19.9364 4.20065ZM16.5282 4.83759C14.1399 3.11759 12.1078 2.56934 10.4165 2.70909C8.33959 2.87975 6.18066 4.1375 4.01019 6.90293C2.37529 8.98305 2.21 12.4956 3.09023 17.0859C3.50921 19.2721 4.12166 21.4853 4.73795 23.5883C4.86992 24.0424 5.00573 24.4966 5.13898 24.9468C5.60665 26.519 6.05765 28.0388 6.35363 29.3005C7.6618 34.8878 8.80085 37.8898 10.865 40.0048C11.2916 39.5883 11.8298 38.9218 12.5434 37.9744L12.8894 37.5122C13.6197 36.5353 14.4846 35.3756 15.3674 34.4484C16.3052 33.4662 17.8543 32.0808 19.8646 32.0754C21.8839 32.0687 23.4291 33.4756 24.3478 34.4525C25.2178 35.3783 26.0711 36.5366 26.7912 37.5149L27.1333 37.9785C27.8315 38.9191 28.3607 39.5856 28.7797 40.0008C29.6087 39.2134 30.1468 38.5563 30.6119 37.7393C31.2141 36.6844 31.774 35.2224 32.4954 32.6438L32.5351 32.5148L37.573 17.3801C38.2316 15.1764 38.566 13.1648 38.3931 11.2741C38.2214 9.43321 37.5564 7.55599 35.9599 5.61562C33.3154 2.39869 30.0661 2.35031 26.9987 3.34603C25.4548 3.84859 24.0697 4.59571 23.055 5.23534C22.6732 5.47453 22.3528 5.69356 22.1043 5.87228L27.0243 9.66702C27.2982 9.878 27.481 10.1944 27.5324 10.5467C27.5838 10.899 27.4997 11.2583 27.2985 11.5456C27.0974 11.8328 26.7956 12.0245 26.4597 12.0784C26.1238 12.1324 25.7812 12.0441 25.5073 11.8331L18.5564 6.47159C18.4593 6.40698 18.3664 6.3356 18.2784 6.25793L16.7947 5.1144C16.6934 5.03639 16.6036 4.94311 16.5282 4.83759Z" fill="white"/>
</svg>
