<svg width="38" height="38" viewBox="0 0 38 38" fill="none" xmlns="http://www.w3.org/2000/svg">
<g id="solar:map-point-bold">
<path id="Vector" fill-rule="evenodd" clip-rule="evenodd" d="M19 3.16675C12.0048 3.16675 6.33331 9.50483 6.33331 16.6251C6.33331 23.6899 10.3756 31.3691 16.6836 34.3172C17.4086 34.6567 18.1994 34.8327 19 34.8327C19.8006 34.8327 20.5914 34.6567 21.3164 34.3172C27.6244 31.3691 31.6666 23.6899 31.6666 16.6251C31.6666 9.50483 25.9951 3.16675 19 3.16675ZM19 19.0001C19.8398 19.0001 20.6453 18.6665 21.2392 18.0726C21.833 17.4787 22.1666 16.6733 22.1666 15.8334C22.1666 14.9936 21.833 14.1881 21.2392 13.5942C20.6453 13.0004 19.8398 12.6667 19 12.6667C18.1601 12.6667 17.3547 13.0004 16.7608 13.5942C16.1669 14.1881 15.8333 14.9936 15.8333 15.8334C15.8333 16.6733 16.1669 17.4787 16.7608 18.0726C17.3547 18.6665 18.1601 19.0001 19 19.0001Z" fill="#E72381"/>
</g>
</svg>
