<svg width="76" height="87" viewBox="0 0 76 87" fill="none" xmlns="http://www.w3.org/2000/svg">
<path id="Vector" d="M8.77922 87C7.32082 86.9973 5.88824 86.6168 4.62239 85.896C1.772 84.2884 0 81.1677 0 77.7799V9.22048C0 5.82324 1.772 2.71206 4.62239 1.10446C5.91838 0.363159 7.39064 -0.0180572 8.8853 0.000657313C10.3799 0.0193718 11.8421 0.437331 13.119 1.21085L71.9915 36.2849C73.2185 37.0506 74.2299 38.1139 74.9311 39.3751C75.6322 40.6363 76 42.0541 76 43.4955C76 44.9369 75.6322 46.3546 74.9311 47.6158C74.2299 48.877 73.2185 49.9403 71.9915 50.706L13.1095 85.7896C11.8028 86.5758 10.3061 86.9942 8.77922 87Z" fill="white"/>
</svg>
