<svg width="91" height="91" viewBox="0 0 91 91" fill="none" xmlns="http://www.w3.org/2000/svg">
<circle cx="45.5" cy="45.5" r="45.5" fill="#6BBAE9"/>
<path d="M65.7189 21.7407C60.5841 16.7848 51.4165 19.309 48.3366 20.356C47.6595 20.5863 46.9299 20.5863 46.2528 20.356C43.1729 19.309 34.0053 16.7851 28.8705 21.7407C20.4531 29.2766 26.4049 40.6488 29.4777 45.3456C30.4579 46.8437 30.9935 48.5935 31.0501 50.3928C31.3765 60.7936 33.4308 70.7346 36.585 70.7346C40.0318 70.7346 40.36 66.7216 40.36 57.7646C40.36 53.5064 41.9275 50.9749 43.5718 49.4911C45.682 47.587 48.9071 47.587 51.0173 49.4911C52.6619 50.9749 54.2291 53.5064 54.2291 57.7646C54.2291 66.7216 54.5573 70.7346 58.0041 70.7346C61.158 70.7346 63.2126 60.794 63.539 50.3928C63.5956 48.5935 64.1312 46.8437 65.1111 45.3456C68.1845 40.6488 74.136 29.2766 65.7189 21.7407Z" fill="white"/>
<path d="M65.7189 21.7408C62.8805 19.0015 58.8111 18.5493 55.218 18.8679C57.6842 19.1159 60.1072 19.9251 61.9883 21.7408C70.4057 29.2766 64.4539 40.6489 61.3812 45.3457C60.4013 46.8438 59.8653 48.5936 59.8087 50.3929C59.5404 58.9463 58.1026 67.1831 55.8462 69.8416C56.3766 70.4411 57.0767 70.7347 58.0044 70.7347C61.1583 70.7347 63.2129 60.794 63.5393 50.3929C63.5956 48.5936 64.1315 46.8438 65.1114 45.3457C68.1845 40.6489 74.136 29.2766 65.7189 21.7408Z" fill="#D5E6F7"/>
<path d="M73.1742 47.958C73.1742 45.2565 71.0245 43.0664 68.3727 43.0664C66.6569 43.0664 65.156 43.9858 64.3067 45.3648C63.4573 43.9861 61.9561 43.0664 60.2406 43.0664C57.5888 43.0664 55.4391 45.2565 55.4391 47.958C55.4391 50.4053 57.2049 52.4269 59.5082 52.787C59.5079 52.8082 59.5051 52.8285 59.5051 52.8497C59.5051 55.5512 61.6548 57.7413 64.3067 57.7413C66.9585 57.7413 69.1082 55.5512 69.1082 52.8497C69.1082 52.8285 69.1054 52.8082 69.1051 52.787C71.4084 52.4269 73.1742 50.4056 73.1742 47.958Z" fill="#D5E6F7"/>
<path d="M32.2731 29.627C32.2731 27.4645 30.5521 25.7112 28.4294 25.7112C27.0559 25.7112 25.8544 26.4472 25.1745 27.551C24.4946 26.4472 23.293 25.7112 21.9196 25.7112C19.7966 25.7112 18.0758 27.4645 18.0758 29.627C18.0758 31.5862 19.4894 33.2043 21.3332 33.4925C21.3329 33.5093 21.3308 33.5258 21.3308 33.5429C21.3308 35.7057 23.0518 37.4587 25.1745 37.4587C27.2975 37.4587 29.0182 35.7054 29.0182 33.5429C29.0182 33.5258 29.016 33.5096 29.0157 33.4925C30.8596 33.2043 32.2731 31.5862 32.2731 29.627Z" fill="#D5E6F7"/>
<path d="M64.3066 58.6917C61.3794 58.6917 58.9576 56.4456 58.6141 53.5565C56.1936 52.8379 54.5064 50.5943 54.5064 47.958C54.5064 44.7367 57.0787 42.1162 60.2406 42.1162C61.7929 42.1162 63.2428 42.7449 64.3066 43.8423C65.3705 42.7449 66.8204 42.1162 68.3727 42.1162C71.5343 42.1162 74.1069 44.7367 74.1069 47.958C74.1069 50.5946 72.4197 52.8379 69.9992 53.5565C69.6554 56.4456 67.2336 58.6917 64.3066 58.6917ZM60.4374 52.8712C60.4486 55.0349 62.1799 56.7914 64.3063 56.7914C66.4334 56.7914 68.165 55.034 68.1752 52.8696C68.174 52.8461 68.1725 52.8135 68.1721 52.8008C68.1653 52.3264 68.5029 51.9198 68.963 51.8479C70.8625 51.5508 72.2409 49.9146 72.2409 47.958C72.2409 45.7847 70.5053 44.0165 68.372 44.0165C67.0352 44.0165 65.8107 44.7095 65.096 45.8699C64.9256 46.1467 64.6272 46.3149 64.306 46.3149C63.9849 46.3149 63.6864 46.1467 63.5161 45.8699C62.8014 44.7095 61.5768 44.0165 60.24 44.0165C58.1068 44.0165 56.3711 45.7847 56.3711 47.958C56.3711 49.915 57.7499 51.5511 59.649 51.8479C60.1091 51.9198 60.4467 52.3264 60.4399 52.8008C60.4405 52.8157 60.439 52.8487 60.4374 52.8712Z" fill="#504774"/>
<path d="M25.1745 38.409C22.7779 38.409 20.788 36.6016 20.4488 34.2544C18.4949 33.6197 17.1432 31.7809 17.1432 29.6272C17.1432 26.944 19.2861 24.7612 21.9196 24.7612C23.1497 24.7612 24.3022 25.235 25.1745 26.0677C26.0468 25.235 27.1996 24.7612 28.4294 24.7612C31.0632 24.7612 33.2058 26.9443 33.2058 29.6272C33.2058 31.7812 31.8541 33.62 29.8999 34.2544C29.561 36.6016 27.5711 38.409 25.1745 38.409ZM22.2634 33.5649C22.2749 35.1903 23.5762 36.5088 25.1745 36.5088C26.7724 36.5088 28.0738 35.1906 28.0856 33.5655C28.0843 33.5434 28.0834 33.5222 28.0834 33.5009C28.0794 33.0287 28.4163 32.6249 28.8746 32.5536C30.3037 32.33 31.3408 31.0993 31.3408 29.6272C31.3408 27.992 30.0348 26.6615 28.4297 26.6615C27.424 26.6615 26.5026 27.1828 25.9647 28.056C25.7941 28.3328 25.4956 28.501 25.1748 28.501C24.854 28.501 24.5555 28.3328 24.3848 28.056C23.847 27.1828 22.9256 26.6615 21.9199 26.6615C20.3145 26.6615 19.0088 27.992 19.0088 29.6272C19.0088 31.0993 20.0459 32.33 21.475 32.5536C21.9367 32.6259 22.2746 33.0347 22.2659 33.5101C22.2656 33.5222 22.2646 33.5459 22.2634 33.5649Z" fill="#504774"/>
<path d="M23.5641 52.5688C25.1094 52.5688 26.362 51.2926 26.362 49.7183C26.362 48.1441 25.1094 46.8679 23.5641 46.8679C22.0188 46.8679 20.7662 48.1441 20.7662 49.7183C20.7662 51.2926 22.0188 52.5688 23.5641 52.5688Z" fill="#D5E6F7"/>
<path d="M23.5641 53.5188C21.507 53.5188 19.8336 51.814 19.8336 49.7183C19.8336 47.6226 21.507 45.9177 23.5641 45.9177C25.6212 45.9177 27.2947 47.6226 27.2947 49.7183C27.2947 51.814 25.6209 53.5188 23.5641 53.5188ZM23.5641 47.818C22.5354 47.818 21.6988 48.6703 21.6988 49.7183C21.6988 50.7663 22.5354 51.6186 23.5641 51.6186C24.5928 51.6186 25.4294 50.7663 25.4294 49.7183C25.4294 48.6703 24.5925 47.818 23.5641 47.818Z" fill="#504774"/>
<path d="M54.285 63.4423C55.8303 63.4423 57.083 62.1661 57.083 60.5919C57.083 59.0176 55.8303 57.7415 54.285 57.7415C52.7398 57.7415 51.4871 59.0176 51.4871 60.5919C51.4871 62.1661 52.7398 63.4423 54.285 63.4423Z" fill="#D5E6F7"/>
<path d="M54.2851 64.3926C52.228 64.3926 50.5545 62.6878 50.5545 60.5921C50.5545 58.4964 52.228 56.7915 54.2851 56.7915C56.3422 56.7915 58.0156 58.4964 58.0156 60.5921C58.0156 62.6878 56.3422 64.3926 54.2851 64.3926ZM54.2851 58.6918C53.2564 58.6918 52.4198 59.5441 52.4198 60.5921C52.4198 61.6401 53.2564 62.4923 54.2851 62.4923C55.3138 62.4923 56.1504 61.6401 56.1504 60.5921C56.1504 59.5441 55.3138 58.6918 54.2851 58.6918Z" fill="#504774"/>
</svg>
