<svg width="91" height="91" viewBox="0 0 91 91" fill="none" xmlns="http://www.w3.org/2000/svg">
<circle cx="45.5" cy="45.5" r="45.5" fill="#6BBAE9"/>
<path d="M67.4101 22.575C64.3488 19.6203 59.8269 19.379 56.0726 19.8733C55.5641 23.5691 57.1489 28.035 60.5762 31.5265C63.7257 34.7351 67.684 36.361 71.1201 36.2009C72.2138 31.6431 71.863 26.5618 67.4101 22.575Z" fill="white"/>
<path d="M57.5279 34.6317C54.1006 31.1402 52.5157 26.6743 53.0243 22.9785C50.6045 23.2968 48.5024 23.9203 47.3189 24.3228C46.655 24.5483 45.9396 24.5483 45.2761 24.3228C42.2562 23.2962 33.2678 20.8213 28.2332 25.6803C19.9802 33.069 25.8159 44.2192 28.8285 48.8243C29.7893 50.293 30.3147 52.0088 30.37 53.7729C30.6898 63.9707 32.7045 73.7177 35.7968 73.7177C39.1763 73.7177 39.4982 69.7828 39.4982 61.0012C39.4982 56.8262 41.035 54.3442 42.6474 52.8894C44.7166 51.0225 47.8787 51.0225 49.9478 52.8894C51.5603 54.3442 53.0971 56.8262 53.0971 61.0012C53.0971 69.7832 53.419 73.7177 56.7985 73.7177C59.8908 73.7177 61.9052 63.971 62.2253 53.7729C62.2806 52.0088 62.806 50.2933 63.7668 48.8243C65.154 46.7038 67.1387 43.1956 68.072 39.3061C64.6357 39.4659 60.6777 37.8404 57.5279 34.6317Z" fill="white"/>
<path d="M64.9272 38.9824C63.8301 42.6679 61.5029 46.8793 60.2301 48.8245C59.2693 50.2931 58.7439 52.0089 58.6886 53.7731C58.4232 62.2344 56.9902 70.3794 54.7439 72.9101C55.2563 73.4524 55.9243 73.7179 56.7985 73.7179C59.8908 73.7179 61.9052 63.9712 62.2253 53.7731C62.2806 52.0089 62.8059 50.2935 63.7668 48.8245C65.154 46.704 67.1387 43.1957 68.072 39.3062C67.0577 39.3536 65.9979 39.2412 64.9272 38.9824Z" fill="#D5E6F7"/>
<path d="M67.4101 22.5751C64.6395 19.9011 60.6746 19.4519 57.1629 19.7567C59.5942 19.9948 61.9849 20.7852 63.8393 22.5751C68.1597 26.443 68.618 31.3416 67.6426 35.7927C68.8264 36.1124 70.0008 36.2528 71.1198 36.201C72.2138 31.6432 71.863 26.5619 67.4101 22.5751Z" fill="#D5E6F7"/>
<path d="M70.6548 37.1785H70.6541C66.9223 37.1785 63.0042 35.3673 59.9053 32.2099C56.3949 28.6337 54.5662 23.8552 55.1329 19.7389C55.1924 19.3078 55.527 18.9704 55.9509 18.9144C57.0085 18.7752 58.038 18.7046 59.0109 18.7046C62.8309 18.7046 65.872 19.7669 68.0499 21.861C72.0806 25.4782 73.4608 30.5157 72.0417 36.4309C71.9417 36.8476 71.584 37.1475 71.1634 37.1669C70.9948 37.1746 70.8256 37.1785 70.6548 37.1785ZM56.9414 20.7452C56.7571 24.103 58.3625 27.9048 61.2467 30.8431C63.8693 33.5146 67.2532 35.143 70.3594 35.2404C71.3452 30.3237 70.1443 26.3098 66.7835 23.3013C66.7746 23.2933 66.7658 23.2852 66.7572 23.2768C64.9431 21.5256 62.3363 20.6379 59.0106 20.6379C58.3483 20.6379 57.6547 20.674 56.9414 20.7452Z" fill="#504774"/>
<path d="M62.6557 30.3745C62.4147 30.3745 62.1737 30.2817 61.9886 30.0954C61.6161 29.7201 61.6129 29.1082 61.9811 28.7283L71.4303 18.9916C71.7987 18.612 72.3994 18.6085 72.7723 18.9838C73.1448 19.3592 73.148 19.9711 72.7799 20.351L63.3306 30.0874C63.145 30.2788 62.9002 30.3745 62.6557 30.3745Z" fill="#504774"/>
<path d="M66.415 30.3746H62.6557C62.1316 30.3746 61.7068 29.9419 61.7068 29.408V25.3709C61.7068 24.837 62.1316 24.4043 62.6557 24.4043C63.1798 24.4043 63.6045 24.837 63.6045 25.3709V28.441H66.415C66.9391 28.441 67.3639 28.8737 67.3639 29.4077C67.3639 29.9416 66.9391 30.3746 66.415 30.3746Z" fill="#504774"/>
</svg>
