<svg width="70" height="72" viewBox="0 0 70 72" fill="none" xmlns="http://www.w3.org/2000/svg">
<path d="M61.8869 27.5276C54.395 23.1429 41.0197 25.3762 36.5259 26.3025C35.538 26.5063 34.4735 26.5063 33.4855 26.3025C28.9917 25.3762 15.6164 23.1429 8.12455 27.5276C-4.15609 34.1948 4.52697 44.2564 9.01053 48.412C10.4405 49.7373 11.2221 51.2855 11.3042 52.8776C11.78 62.08 14.7775 70.8751 19.3793 70.8751C24.4081 70.8751 24.8869 67.3246 24.8869 59.3999C24.8869 55.6326 27.1739 53.3929 29.5731 52.0798C32.652 50.395 37.3576 50.395 40.4365 52.0798C42.8357 53.3929 45.1227 55.6322 45.1227 59.3999C45.1227 67.3243 45.6015 70.8751 50.6303 70.8751C55.2321 70.8751 58.2296 62.08 58.7054 52.8776C58.7881 51.2855 59.5697 49.7377 60.9991 48.412C65.4845 44.2564 74.1675 34.1952 61.8869 27.5276Z" fill="white"/>
<path d="M61.8869 27.5278C57.7459 25.104 51.8088 24.7039 46.5659 24.9859C50.1641 25.2054 53.699 25.9215 56.4437 27.5278C68.725 34.195 60.0413 44.2566 55.5578 48.4122C54.1278 49.7375 53.3461 51.2857 53.2641 52.8778C52.8727 60.4452 50.7745 67.7328 47.4833 70.085C48.2571 70.6156 49.2781 70.8753 50.6321 70.8753C55.2339 70.8753 58.2314 62.0802 58.7072 52.8778C58.7899 51.2857 59.5715 49.7379 61.0009 48.4122C65.4844 44.2566 74.1675 34.195 61.8869 27.5278Z" fill="#D5E6F7"/>
<path d="M50.6316 71.9928C43.314 71.9928 43.314 66.4355 43.314 59.3997C43.314 56.5777 41.9431 54.3965 39.2375 52.9169C38.0795 52.2831 36.5772 51.9344 35.0054 51.9344C33.4337 51.9344 31.9314 52.2835 30.7734 52.9169C28.0684 54.3969 26.6969 56.5781 26.6969 59.4001C26.6969 66.4359 26.6969 71.9931 19.3793 71.9931C10.911 71.9931 9.66011 56.0996 9.49546 52.9136C9.42309 51.5148 8.73372 50.1728 7.50397 49.0322C2.87204 44.7392 -6.45393 33.9734 6.90387 26.7018C10.2216 24.7687 14.8385 23.7888 20.6284 23.7888C26.177 23.7888 31.4235 24.6994 34.0573 25.2423C34.6713 25.369 35.3396 25.369 35.9523 25.2423C38.5867 24.6994 43.8338 23.7888 49.3825 23.7888C55.1718 23.7888 59.7887 24.7691 63.1064 26.7018C76.4636 33.9734 67.1382 44.7392 62.5063 49.0322C61.2765 50.1724 60.5872 51.5148 60.5148 52.9136C60.3508 56.0993 59.0999 71.9928 50.6316 71.9928ZM35.006 49.6984C37.4619 49.6984 39.8177 50.2469 41.6373 51.2432C44.0528 52.5648 46.9326 55.053 46.9326 59.3997C46.9326 67.6278 47.6932 69.7572 50.6316 69.7572C52.567 69.7572 56.3165 64.1045 56.8991 52.842C56.9926 51.026 57.8913 49.2796 59.4961 47.7922C63.6028 43.9858 71.9402 34.4734 60.6927 28.3673C60.6758 28.3583 60.659 28.3487 60.6427 28.339C58.0179 26.8028 54.2297 26.024 49.3831 26.024C44.3459 26.024 39.5246 26.8627 37.0989 27.3628C35.7467 27.6418 34.2666 27.6418 32.9132 27.3628C30.4881 26.8627 25.6668 26.024 20.6302 26.024C15.7829 26.024 11.9948 26.8028 9.37001 28.339C9.35373 28.3487 9.33684 28.358 9.31995 28.3673C-1.92694 34.4734 6.41052 43.9858 10.5165 47.7922C12.1214 49.28 13.0195 51.026 13.1135 52.842C13.6962 64.1049 17.4457 69.7572 19.3811 69.7572C22.3195 69.7572 23.08 67.6278 23.08 59.3997C23.08 55.0527 25.9599 52.5648 28.3754 51.2429C30.1944 50.2473 32.5502 49.6984 35.006 49.6984Z" fill="#504774"/>
<path d="M66.1484 43.4322H50.7642C49.7648 43.4322 48.9548 42.9318 48.9548 42.3144V38.7997C48.9548 37.7065 47.5152 36.8172 45.7456 36.8172H24.2669C22.4967 36.8172 21.0577 37.7065 21.0577 38.7997V42.3144C21.0577 42.9318 20.2477 43.4322 19.2484 43.4322H3.86349C3.1102 43.4322 2.43592 43.1442 2.16995 42.7087C-1.85344 36.1133 -0.216583 30.5788 6.905 26.7019C10.2227 24.7689 14.8402 23.7886 20.6295 23.7886C26.1806 23.7886 31.4283 24.6999 34.0627 25.2432C34.6742 25.3695 35.3371 25.3695 35.9486 25.2432C38.583 24.6999 43.8313 23.7886 49.3818 23.7886C55.1711 23.7886 59.7886 24.7689 63.1063 26.7019C70.2279 30.5791 71.8642 36.1133 67.8414 42.7087C67.576 43.1442 66.9017 43.4322 66.1484 43.4322ZM52.5735 41.1967H64.8747C67.839 35.7985 66.4349 31.4849 60.692 28.3674C60.6752 28.3585 60.6583 28.3488 60.642 28.3391C58.0172 26.8029 54.2285 26.0242 49.3818 26.0242C44.3434 26.0242 39.5203 26.8632 37.0946 27.3636C35.7424 27.6423 34.2684 27.6423 32.9162 27.3636C30.491 26.8632 25.6685 26.0242 20.6289 26.0242C15.7823 26.0242 11.9935 26.8029 9.36873 28.3391C9.35245 28.3488 9.33556 28.3581 9.31867 28.3674C3.57641 31.4849 2.17175 35.7985 5.13607 41.1967H17.4372V38.7997C17.4372 36.4736 20.5004 34.5816 24.2651 34.5816H45.7438C49.5085 34.5816 52.5717 36.474 52.5717 38.7997V41.1967H52.5735Z" fill="#504774"/>
<path d="M45.7215 15.5963L35.006 5.85889L24.2904 15.5963L13.5743 5.85889V21.5508H35.006H56.4377V5.85889L45.7215 15.5963Z" fill="#FD919F"/>
<path d="M49.0948 21.5508H56.4377V5.85889L49.0948 12.5313V21.5508Z" fill="#E0667D"/>
<path d="M35.006 17.8148C36.843 17.8148 38.3322 16.8948 38.3322 15.7599C38.3322 14.6251 36.843 13.7051 35.006 13.7051C33.169 13.7051 31.6798 14.6251 31.6798 15.7599C31.6798 16.8948 33.169 17.8148 35.006 17.8148Z" fill="white"/>
<path d="M13.5744 5.85901C15.4114 5.85901 16.9005 4.93901 16.9005 3.80414C16.9005 2.66926 15.4114 1.74927 13.5744 1.74927C11.7374 1.74927 10.2482 2.66926 10.2482 3.80414C10.2482 4.93901 11.7374 5.85901 13.5744 5.85901Z" fill="#D5E6F7"/>
<path d="M35.006 5.85901C36.843 5.85901 38.3322 4.93901 38.3322 3.80414C38.3322 2.66926 36.843 1.74927 35.006 1.74927C33.169 1.74927 31.6798 2.66926 31.6798 3.80414C31.6798 4.93901 33.169 5.85901 35.006 5.85901Z" fill="#D5E6F7"/>
<path d="M56.4378 5.85901C58.2748 5.85901 59.764 4.93901 59.764 3.80414C59.764 2.66926 58.2748 1.74927 56.4378 1.74927C54.6008 1.74927 53.1116 2.66926 53.1116 3.80414C53.1116 4.93901 54.6008 5.85901 56.4378 5.85901Z" fill="#A0D1F2"/>
<path d="M56.4371 22.6686H13.5749C12.5755 22.6686 11.7656 22.1682 11.7656 21.5508V5.8589C11.7656 5.36819 12.2836 4.93486 13.0424 4.79066C13.8023 4.64609 14.6243 4.8242 15.0712 5.2307L24.2899 13.6082L33.5097 5.2307C33.8462 4.92442 34.4065 4.74148 35.0054 4.74148C35.6043 4.74148 36.1652 4.9248 36.5011 5.2307L45.721 13.6082L54.9396 5.2307C55.3865 4.82494 56.2091 4.64684 56.9685 4.79066C57.7272 4.93486 58.2453 5.36819 58.2453 5.8589V21.5508C58.2465 22.1682 57.4365 22.6686 56.4371 22.6686ZM15.3843 20.433H54.6278V9.49134L47.2185 16.2245C46.8814 16.5308 46.3211 16.7138 45.7222 16.7138C45.1233 16.7138 44.5624 16.5304 44.2264 16.2245L35.006 7.84707L25.7862 16.2245C25.4496 16.5308 24.8894 16.7138 24.2905 16.7138C23.6916 16.7138 23.1307 16.5304 22.7941 16.2245L15.3843 9.49134V20.433Z" fill="#504774"/>
<path d="M13.5749 6.97667C10.7433 6.97667 8.43878 5.55335 8.43878 3.80401C8.43878 2.05467 10.7427 0.631348 13.5749 0.631348C16.4071 0.631348 18.7104 2.05467 18.7104 3.80401C18.7104 5.55335 16.4065 6.97667 13.5749 6.97667ZM13.5749 2.86693C12.7384 2.86693 12.0575 3.28722 12.0575 3.80401C12.0575 4.3208 12.7384 4.74109 13.5749 4.74109C14.4114 4.74109 15.0918 4.3208 15.0918 3.80401C15.0918 3.28722 14.4114 2.86693 13.5749 2.86693Z" fill="#504774"/>
<path d="M35.0061 6.97667C32.1744 6.97667 29.8705 5.55335 29.8705 3.80401C29.8705 2.05467 32.1744 0.631348 35.0061 0.631348C37.8377 0.631348 40.1422 2.05467 40.1422 3.80401C40.1422 5.55335 37.8377 6.97667 35.0061 6.97667ZM35.0061 2.86693C34.1696 2.86693 33.4892 3.28722 33.4892 3.80401C33.4892 4.3208 34.1696 4.74109 35.0061 4.74109C35.8426 4.74109 36.5235 4.3208 36.5235 3.80401C36.5235 3.28722 35.8426 2.86693 35.0061 2.86693Z" fill="#504774"/>
<path d="M35.0061 18.9325C32.1744 18.9325 29.8705 17.5092 29.8705 15.7598C29.8705 14.0105 32.1738 12.5872 35.0061 12.5872C37.8383 12.5872 40.1422 14.0105 40.1422 15.7598C40.1422 17.5092 37.8377 18.9325 35.0061 18.9325ZM35.0061 14.8224C34.1696 14.8224 33.4892 15.2427 33.4892 15.7594C33.4892 16.2762 34.1696 16.6965 35.0061 16.6965C35.8426 16.6965 36.5235 16.2762 36.5235 15.7594C36.5235 15.2427 35.8426 14.8224 35.0061 14.8224Z" fill="#504774"/>
<path d="M56.4378 6.97667C53.6061 6.97667 51.3016 5.55335 51.3016 3.80401C51.3016 2.05467 53.6055 0.631348 56.4378 0.631348C59.27 0.631348 61.5733 2.05467 61.5733 3.80401C61.5733 5.55335 59.2694 6.97667 56.4378 6.97667ZM56.4378 2.86693C55.6013 2.86693 54.9203 3.28722 54.9203 3.80401C54.9203 4.3208 55.6013 4.74109 56.4378 4.74109C57.2743 4.74109 57.9546 4.3208 57.9546 3.80401C57.9546 3.28722 57.2743 2.86693 56.4378 2.86693Z" fill="#504774"/>
</svg>
