<svg width="91" height="91" viewBox="0 0 91 91" fill="none" xmlns="http://www.w3.org/2000/svg">
<circle cx="45.5" cy="45.5" r="45.5" fill="#6BBAE9"/>
<path d="M60.7287 71.5832C69.4503 66.4413 75.322 56.8409 75.322 45.8367H60.7287V71.5832Z" fill="white"/>
<path d="M68.0254 65.4933C72.5652 60.2543 75.322 53.3753 75.322 45.8367H68.0254V65.4933Z" fill="#D4E7F8"/>
<path d="M31.5421 71.5832V45.8367H16.9488C16.9488 56.8405 22.8205 66.4413 31.5421 71.5832Z" fill="white"/>
<path d="M31.5421 45.8367V71.5832C35.8362 74.1149 40.8173 75.5709 46.1354 75.5709V45.8367H31.5421Z" fill="white"/>
<path d="M60.7288 45.8367H46.1355V75.5709C51.4536 75.5709 56.4347 74.1145 60.7288 71.5832V45.8367Z" fill="white"/>
<path d="M46.1354 63.6053C37.0691 63.6053 28.0023 62.1963 19.1876 59.378C18.5247 59.1661 18.1561 58.4467 18.364 57.7712C18.5725 57.0958 19.2799 56.7211 19.9412 56.9322C37.077 62.4108 55.1933 62.4108 72.3296 56.9322C72.9913 56.7203 73.6987 57.0958 73.9067 57.7712C74.1147 58.4467 73.7461 59.1661 73.0831 59.378C64.2684 62.1959 55.2017 63.6053 46.1354 63.6053Z" fill="#504774"/>
<path d="M31.5422 72.8648C31.3245 72.8648 31.1069 72.8076 30.9119 72.6926C21.5235 67.1572 15.6908 56.8664 15.6908 45.8366C15.6908 45.1287 16.254 44.5549 16.9488 44.5549H31.5422C32.237 44.5549 32.8002 45.1287 32.8002 45.8366V71.5832C32.8002 72.0411 32.5603 72.4645 32.1708 72.6935C31.9762 72.8076 31.7594 72.8648 31.5422 72.8648ZM18.2358 47.1182C18.6325 55.9898 23.1271 64.2128 30.2841 69.2548V47.1182H18.2358Z" fill="#504774"/>
<path d="M46.1354 76.8524C40.7925 76.8524 35.528 75.414 30.9118 72.6922C30.5231 72.4628 30.284 72.0403 30.284 71.5827V45.8366C30.284 45.1287 30.8472 44.5549 31.5421 44.5549H46.1354C46.8303 44.5549 47.3934 45.1287 47.3934 45.8366V75.5708C47.3934 76.2787 46.8303 76.8524 46.1354 76.8524ZM32.8001 70.833C36.5126 72.8921 40.6512 74.0657 44.8773 74.2601V47.1182H32.8001V70.833Z" fill="#504774"/>
<path d="M46.1354 76.8524C45.4406 76.8524 44.8774 76.2787 44.8774 75.5708V45.8366C44.8774 45.1287 45.4406 44.5549 46.1354 44.5549H60.7287C61.4236 44.5549 61.9868 45.1287 61.9868 45.8366V71.5832C61.9868 72.0407 61.7478 72.4632 61.359 72.6926C56.7428 75.414 51.4783 76.8524 46.1354 76.8524ZM47.3935 47.1182V74.2601C51.6197 74.0653 55.7582 72.8921 59.4707 70.833V47.1182H47.3935Z" fill="#504774"/>
<path d="M60.7288 72.8648C60.5116 72.8648 60.2947 72.8076 60.1002 72.6935C59.7106 72.4645 59.4707 72.0416 59.4707 71.5832V45.8366C59.4707 45.1287 60.0339 44.5549 60.7288 44.5549H75.3221C76.017 44.5549 76.5801 45.1287 76.5801 45.8366C76.5801 56.8664 70.7478 67.1572 61.3591 72.6922C61.1641 72.8071 60.946 72.8648 60.7288 72.8648ZM61.9868 47.1182V69.2548C69.1438 64.2128 73.6384 55.9898 74.0351 47.1182H61.9868Z" fill="#504774"/>
<path d="M10.3851 51.5785C9.7645 51.5785 9.22438 51.1107 9.13967 50.4664L9.1317 50.407C8.46871 45.453 10.3357 40.5943 14.127 37.4133C14.6633 36.963 15.4563 37.0416 15.8979 37.588C16.3399 38.1344 16.2631 38.9423 15.7268 39.3921C12.6136 42.0041 11.0804 45.9935 11.6256 50.064L11.634 50.1263C11.7262 50.8278 11.2423 51.4729 10.5537 51.5669C10.4971 51.575 10.4409 51.5785 10.3851 51.5785Z" fill="#504774"/>
<path d="M81.8857 51.5785C81.8299 51.5785 81.7737 51.5747 81.7175 51.567C81.0285 51.473 80.545 50.8283 80.6373 50.1264L80.6453 50.067C81.1908 45.9935 79.6577 42.0038 76.5444 39.3922C76.0081 38.9423 75.9314 38.1345 76.3734 37.5881C76.8145 37.0417 77.6075 36.9635 78.1443 37.4133C81.9356 40.5944 83.8025 45.4531 83.1391 50.4101L83.1316 50.4661C83.0464 51.1107 82.5059 51.5785 81.8857 51.5785Z" fill="#504774"/>
</svg>
