<svg width="70" height="23" viewBox="0 0 70 23" fill="none" xmlns="http://www.w3.org/2000/svg">
<path d="M60.5202 4.19753L65.3525 12.0744C65.6782 12.6053 65.7929 13.2427 65.6733 13.8568C65.5536 14.4708 65.2086 15.0153 64.7085 15.3792L59.4619 19.1971C59.0633 19.4872 58.5875 19.6469 58.0977 19.6549C57.6079 19.6629 57.1272 19.519 56.7196 19.2422L56.1312 18.8425C55.6668 18.5271 55.1096 18.3854 54.5542 18.4415C53.9988 18.4975 53.4797 18.7479 53.085 19.1499L51.5703 20.693C51.1177 21.1541 50.5039 21.4132 49.8639 21.4133H39.3625C38.9877 21.4134 38.6181 21.3245 38.2829 21.1537L35.0439 19.5039C34.7088 19.3331 32.0809 13.8566 33.9644 19.2442C33.5896 19.2442 33.22 19.3331 32.8848 19.5039L29.6458 21.1537C29.3108 21.3244 28.9414 21.4133 28.5669 21.4133H18.0655C17.4253 21.4133 16.8113 21.1542 16.3586 20.693L14.8439 19.1499C14.4492 18.7479 13.9301 18.4975 13.3747 18.4415C12.8193 18.3854 12.2621 18.5271 11.7977 18.8425L11.2093 19.2422C10.8017 19.519 10.321 19.6629 9.83123 19.6549C9.34142 19.6469 8.8656 19.4872 8.46698 19.1971L7.79864 21.192C7.29858 20.8282 6.95356 20.2837 6.8339 19.6696C6.71425 19.0555 6.82897 18.4181 7.15467 17.8872L7.40975 4.19753L8.44939 19.9472H6.03528L0 1.50166C0.0694057 1.0974 6.1077 -2.60554 9.65645 5.19076L14.3692 1.34979C15.2253 0.652077 16.289 0.271959 17.3854 0.271959H27.8566C28.5807 0.271959 29.2955 0.437881 29.9481 0.75744C30.6008 1.077 31.1745 1.54201 31.6268 2.11805L33.1206 4.01994C33.3467 4.30795 33.6336 4.54046 33.9599 4.70024C34.2862 4.86002 34.6436 4.94298 35.0057 4.94298C35.3677 4.94298 35.7251 4.86002 36.0515 4.70024C36.3778 4.54046 36.6646 4.30795 36.8908 4.01994L38.3845 2.11805C38.8367 1.54219 39.4102 1.07729 40.0626 0.757739C40.715 0.438187 41.4295 0.272167 42.1534 0.271959H52.6239C53.7202 0.271959 54.7839 0.652077 55.64 1.34979L60.3528 5.19076C63.9015 -2.60554 69.9398 1.0974 70.0092 1.50166L63.6722 19.9472H61.5599L60.5202 4.19753Z" fill="#FC9495"/>
<path d="M30.1764 12.5691C31.4569 12.5691 32.685 13.0873 33.5904 14.0098C34.4959 14.9322 35.0046 16.1833 35.0046 17.4879V22.4067H25.3481V17.4879C25.3481 16.1833 25.8568 14.9322 26.7623 14.0098C27.6678 13.0873 28.8958 12.5691 30.1764 12.5691Z" fill="#E8EDF1"/>
<path d="M21.727 12.5691C22.6874 12.5691 23.6085 12.9578 24.2876 13.6496C24.9667 14.3414 25.3482 15.2798 25.3482 16.2582V22.4067H18.1058V16.2582C18.1058 15.2798 18.4873 14.3414 19.1665 13.6496C19.8456 12.9578 20.7666 12.5691 21.727 12.5691Z" fill="#E8EDF1"/>
<path d="M14.4847 12.5691C15.4451 12.5691 16.3661 12.9578 17.0452 13.6496C17.7243 14.3414 18.1059 15.2798 18.1059 16.2582V22.4067H10.8635V16.2582C10.8635 15.2798 11.245 14.3414 11.9241 13.6496C12.6032 12.9578 13.5243 12.5691 14.4847 12.5691Z" fill="#E8EDF1"/>
<path d="M10.8635 22.4067H6.03527L5.16739 15.3336C5.12492 14.9876 5.15518 14.6363 5.25615 14.3031C5.35713 13.9698 5.52651 13.6623 5.75306 13.4008C5.9796 13.1394 6.25814 12.93 6.57018 12.7866C6.88222 12.6432 7.22063 12.5691 7.56295 12.5691H8.44938C9.08964 12.5691 9.70368 12.8282 10.1564 13.2894C10.6091 13.7507 10.8635 14.3762 10.8635 15.0285V22.4067Z" fill="#E8EDF1"/>
<path d="M44.6611 22.4067H35.0046V17.4879C35.0046 16.1834 35.5133 14.9323 36.4188 14.0098C37.3242 13.0874 38.5523 12.5691 39.8328 12.5691C41.1134 12.5691 42.3414 13.0874 43.2469 14.0098C44.1524 14.9323 44.6611 16.1834 44.6611 17.4879V22.4067Z" fill="#E8EDF1"/>
<path d="M51.9034 22.4067H44.661V16.2582C44.661 15.2798 45.0426 14.3415 45.7217 13.6496C46.4008 12.9578 47.3218 12.5691 48.2822 12.5691C49.2426 12.5691 50.1637 12.9578 50.8428 13.6496C51.5219 14.3415 51.9034 15.2798 51.9034 16.2582V22.4067Z" fill="#E8EDF1"/>
<path d="M59.1458 22.4067H51.9034V16.2582C51.9034 15.2798 52.2849 14.3415 52.964 13.6496C53.6431 12.9578 54.5642 12.5691 55.5246 12.5691C56.485 12.5691 57.406 12.9578 58.0851 13.6496C58.7642 14.3415 59.1458 15.2798 59.1458 16.2582V22.4067Z" fill="#E8EDF1"/>
<path d="M59.1458 22.4067H63.974L64.8419 15.3336C64.8843 14.9876 64.8541 14.6363 64.7531 14.3031C64.6521 13.9698 64.4827 13.6623 64.2562 13.4008C64.0296 13.1394 63.7511 12.93 63.4391 12.7866C63.127 12.6432 62.7886 12.5691 62.4463 12.5691H61.5599C60.9196 12.5691 60.3056 12.8282 59.8528 13.2894C59.4001 13.7507 59.1458 14.3762 59.1458 15.0285V22.4067Z" fill="#E8EDF1"/>
<path d="M60.3528 12.8979V22.4066H57.9387V13.5097C58.3188 13.8552 58.6229 14.2786 58.8309 14.7523C59.0389 15.226 59.1462 15.7392 59.1457 16.2581V15.0284C59.1455 14.5966 59.257 14.1723 59.4689 13.7983C59.6808 13.4243 59.9856 13.1138 60.3528 12.8979Z" fill="#E0E2E5"/>
<path d="M53.1105 13.5098V22.4067H50.6964V13.5098C51.0765 13.8552 51.3806 14.2787 51.5886 14.7524C51.7966 15.226 51.9039 15.7392 51.9034 16.2581C51.9031 15.7737 51.9967 15.2939 52.1787 14.8462C52.3607 14.3986 52.6276 13.992 52.9641 13.6496C53.0124 13.602 53.0607 13.5543 53.1105 13.5098Z" fill="#E0E2E5"/>
<path d="M45.8681 13.5098V22.4067H43.454V14.2338C44.2335 15.1315 44.663 16.2892 44.661 17.4879V16.2581C44.6605 15.7392 44.7678 15.226 44.9758 14.7524C45.1839 14.2787 45.488 13.8552 45.8681 13.5098Z" fill="#E0E2E5"/>
<path d="M36.2117 14.2336V22.4065H33.7975V14.2336C34.5771 15.1314 35.0065 16.2891 35.0046 17.4877C35.0027 16.2891 35.4321 15.1314 36.2117 14.2336Z" fill="#E0E2E5"/>
<path d="M26.5552 14.2338V22.4067H24.1411V13.5098C24.5212 13.8552 24.8253 14.2787 25.0334 14.7524C25.2414 15.226 25.3487 15.7392 25.3482 16.2581V17.4879C25.3462 16.2892 25.7757 15.1315 26.5552 14.2338Z" fill="#E0E2E5"/>
<path d="M19.3129 13.5098V22.4067H16.8988V13.5098C17.2789 13.8552 17.583 14.2787 17.791 14.7524C17.9991 15.226 18.1064 15.7392 18.1059 16.2581C18.1053 15.7392 18.2126 15.226 18.4207 14.7524C18.6287 14.2787 18.9328 13.8552 19.3129 13.5098Z" fill="#E0E2E5"/>
<path d="M12.0705 13.5097V22.4066H9.65643V12.8979C10.0236 13.1138 10.3284 13.4243 10.5403 13.7983C10.7522 14.1723 10.8637 14.5966 10.8635 15.0284V16.2581C10.863 15.7392 10.9703 15.226 11.1783 14.7523C11.3863 14.2786 11.6904 13.8552 12.0705 13.5097Z" fill="#E0E2E5"/>
<rect x="13.1267" y="16.7192" width="2.86676" height="2.92054" rx="1.43338" fill="#959595"/>
<rect x="6.63879" y="16.7192" width="2.86676" height="2.92054" rx="1.43338" fill="#959595"/>
<rect x="20.3691" y="16.7192" width="2.86676" height="2.92054" rx="1.43338" fill="#959595"/>
<rect x="28.9694" y="16.7192" width="2.86676" height="2.92054" rx="1.43338" fill="#959595"/>
<rect x="38.4749" y="16.7192" width="2.86676" height="2.92054" rx="1.43338" fill="#959595"/>
<rect x="46.9243" y="16.7192" width="2.86676" height="2.92054" rx="1.43338" fill="#959595"/>
<rect x="54.1666" y="16.7192" width="2.86676" height="2.92054" rx="1.43338" fill="#959595"/>
<rect x="61.2581" y="16.7192" width="2.86676" height="2.92054" rx="1.43338" fill="#959595"/>
<rect x="7.39325" y="17.949" width="55.3737" height="0.769441" fill="#676363"/>
</svg>
