<svg width="91" height="91" viewBox="0 0 91 91" fill="none" xmlns="http://www.w3.org/2000/svg">
<circle cx="45.5" cy="45.5" r="45.5" fill="#6BBAE9"/>
<path d="M60.4215 54.5521C56.4888 61.631 57.8586 73.7498 52.265 72.7979C48.1796 72.0972 50.3702 52.7787 45.9985 52.7787C41.6267 52.7787 43.8221 72.0972 39.7367 72.7979C34.1431 73.7498 35.5128 61.631 31.5801 54.5521C27.6474 47.4731 23.6766 37.4418 27.6427 30.5465C30.6686 25.2892 37.8276 25.0669 42.5717 27.4201C42.7609 27.5165 42.9553 27.602 43.1539 27.6762C43.9135 27.9856 44.718 28.1667 45.5355 28.2126C46.8796 28.2953 48.2218 28.0222 49.43 27.4201C54.1693 25.0669 61.3284 25.2892 64.3542 30.5465C68.3251 37.4418 64.3542 47.4683 60.4215 54.5521Z" fill="#EBECFF"/>
<path d="M47.9966 29.5284C47.979 29.6747 47.8971 29.8104 47.7667 29.9091C47.6364 30.0078 47.4668 30.0626 47.2909 30.0629H47.2199C45.7469 29.9401 45.0507 29.1246 44.3782 28.3328C43.995 27.8392 43.5311 27.3928 43 27.0066C43.7538 27.26 44.5521 27.4085 45.3633 27.446C45.4201 27.5133 45.477 27.5806 45.5338 27.644C46.1921 28.412 46.5663 28.8158 47.3572 28.8792C47.4502 28.8866 47.5406 28.9093 47.6231 28.946C47.7056 28.9827 47.7787 29.0326 47.8381 29.0929C47.8975 29.1532 47.942 29.2227 47.9692 29.2975C47.9964 29.3722 48.0057 29.4507 47.9966 29.5284Z" fill="#B8BEF2"/>
<path d="M58.8903 37.2109C57.1347 33.8686 52.2069 33.5583 48.6957 34.829C46.6302 35.573 44.3693 35.573 42.3039 34.829C38.7927 33.5583 33.8648 33.8686 32.1092 37.2109C29.3897 42.39 32.2744 48.1655 34.3186 53.163C36.3406 58.1073 35.9543 68.7758 37.8852 68.7758C40.6626 68.7758 37.6545 54.399 43.3282 49.7649C44.8592 48.5149 46.1394 48.5149 47.6698 49.7649C53.344 54.399 50.339 68.7758 53.1144 68.7758C55.0452 68.7758 54.659 58.1073 56.6815 53.163C58.7251 48.1655 61.6108 42.3895 58.8903 37.2109Z" fill="#2AB7C6"/>
<path d="M53.4868 68.7758C51.6467 68.7758 51.4948 66.307 51.2646 62.5703C51.0096 58.4405 50.6596 52.7842 47.6646 50.3996C46.4374 49.4222 45.5662 49.4213 44.3375 50.3996C41.3415 52.7842 40.9935 58.4405 40.739 62.5703C40.5088 66.307 40.3563 68.7753 38.5173 68.7753C36.8376 68.7753 36.5119 66.1201 35.9718 61.7205C35.6124 58.7902 35.2049 55.4693 34.3233 53.3685C34.1475 52.9494 33.9649 52.5245 33.7787 52.0948C31.8105 47.5055 29.5783 42.3029 32.1797 37.4775C34.0852 33.9402 39.2341 33.4831 43.1112 34.8512C44.9779 35.5083 47.0222 35.5083 48.8889 34.8512C52.765 33.4841 57.9135 33.9398 59.8204 37.477C62.4213 42.3015 60.1902 47.5031 58.2214 52.0924C58.0372 52.5226 57.8546 52.9479 57.6768 53.368C56.7947 55.4688 56.3873 58.7902 56.0279 61.7205C55.4917 66.1211 55.1645 68.7758 53.4868 68.7758ZM38.9673 35.5882C36.6376 35.5882 34.454 36.3734 33.4966 38.1486C31.2194 42.3737 33.3084 47.2429 35.1515 51.5404C35.3376 51.9729 35.5191 52.4007 35.696 52.8237C36.6539 55.1056 37.0742 58.5301 37.445 61.551C37.6777 63.449 37.9816 65.9293 38.3811 66.9462C38.396 66.9826 38.4222 67.0135 38.4559 67.0347C38.4896 67.056 38.5293 67.0665 38.5695 67.0649C38.6096 67.0632 38.6483 67.0495 38.6801 67.0256C38.7119 67.0017 38.7352 66.9687 38.747 66.9313C39.0341 66.0618 39.1583 64.041 39.2544 62.4879C39.5252 58.0908 39.8979 52.0683 43.3964 49.283C44.1291 48.6943 45.0496 48.3723 45.9998 48.3723C46.95 48.3723 47.8705 48.6943 48.6032 49.283C52.1022 52.0683 52.474 58.0893 52.7447 62.486C52.8403 64.0352 52.9645 66.0464 53.2606 66.925C53.2736 66.9616 53.2978 66.9934 53.33 67.016C53.3622 67.0387 53.4008 67.0512 53.4406 67.0518C53.4803 67.0523 53.5193 67.041 53.5522 67.0193C53.5851 66.9976 53.6103 66.9665 53.6244 66.9303C54.0205 65.9052 54.3234 63.4398 54.5551 61.5519C54.9259 58.5306 55.3472 55.1061 56.3036 52.8241C56.4813 52.4012 56.6655 51.9725 56.8511 51.5384C58.6932 47.2429 60.7817 42.3747 58.5055 38.1505C57.0442 35.4403 52.7259 35.0376 49.3968 36.212C47.2034 36.9843 44.8012 36.9843 42.6078 36.212C41.44 35.8027 40.2085 35.5917 38.9673 35.5882Z" fill="#3196AD"/>
<path d="M38.1502 63.3058C37.9568 61.2278 37.9502 59.1374 38.1302 57.0583C38.3415 54.9755 38.7143 52.9112 39.2453 50.8831C40.327 46.8476 41.8523 42.9373 43.7949 39.22C47.6823 31.8029 52.7139 25.0093 58.7147 19.0759C58.7835 19.0074 58.8655 18.9528 58.956 18.9151C59.0465 18.8775 59.1438 18.8576 59.2422 18.8565C59.3406 18.8554 59.4383 18.8733 59.5296 18.9089C59.621 18.9446 59.7042 18.9975 59.7746 19.0645C59.8449 19.1315 59.9011 19.2114 59.9397 19.2995C59.9784 19.3876 59.9989 19.4823 60 19.5781C60.001 19.6739 59.9827 19.769 59.9461 19.858C59.9094 19.9469 59.8551 20.0279 59.7863 20.0964C56.8648 23.0273 54.1591 26.1549 51.6893 29.4561C49.2036 32.7444 46.9876 36.2181 45.0617 39.845C43.1364 43.4618 41.6169 47.2701 40.5296 51.2039C40.0088 53.1666 39.6267 55.1618 39.386 57.1754C39.1759 59.1892 39.0646 61.2385 39.0077 63.2708V63.2776C39.004 63.3836 38.9592 63.4843 38.8822 63.5593C38.8052 63.6343 38.7018 63.678 38.5929 63.6817C38.4841 63.6853 38.3779 63.6486 38.2958 63.5789C38.2137 63.5092 38.1618 63.4118 38.1507 63.3063L38.1502 63.3058Z" fill="#494270"/>
<path d="M62.2462 13.099L58.2538 17.7186C57.598 18.4774 57.6702 19.6341 58.415 20.3022C59.1598 20.9702 60.2952 20.8967 60.951 20.1379L64.9434 15.5182C65.5992 14.7595 65.527 13.6028 64.7822 12.9347C64.0374 12.2666 62.902 12.3402 62.2462 13.099Z" fill="#E72381"/>
</svg>
